<svg width="528" height="544" viewBox="0 0 528 544" fill="none" xmlns="http://www.w3.org/2000/svg">
<g id="undraw_online_friends_re_eqaj 1" clip-path="url(#clip0_4_211)">
<path id="Vector" d="M76.2136 467.733V469.141C76.215 471.476 76.8645 473.714 78.0195 475.365C79.1744 477.015 80.7405 477.944 82.3739 477.946H134.613C136.246 477.945 137.813 477.017 138.968 475.366C140.123 473.715 140.772 471.476 140.773 469.141V467.733C140.776 465.672 140.27 463.677 139.344 462.098C139.035 461.574 138.687 461.101 138.304 460.689H111.209C110.882 460.689 110.569 460.503 110.338 460.173C110.107 459.843 109.977 459.395 109.977 458.928H82.3739C80.7408 458.931 79.1752 459.86 78.0204 461.511C76.8656 463.161 76.2159 465.398 76.2136 467.733V467.733Z" fill="#3F3D56"/>
<path id="Vector_2" d="M105.046 542.396H111.453V477.596H105.046V542.396Z" fill="#3F3D56"/>
<path id="Vector_3" d="M86.8116 542.074C86.8116 543.063 96.5199 542.457 108.496 542.457C120.471 542.457 130.18 543.063 130.18 542.074C130.18 541.084 120.471 533.239 108.496 533.239C96.5199 533.239 86.8116 541.084 86.8116 542.074Z" fill="#3F3D56"/>
<path id="Vector_4" d="M86.2671 466.246L108.129 471.233L133.529 477.03L142.335 479.037C143.181 479.228 144.045 478.932 144.737 478.213C145.43 477.495 145.896 476.413 146.031 475.206L146.431 471.642L146.8 468.324L147.106 465.591C147.175 464.98 147.156 464.355 147.051 463.755C146.946 463.154 146.757 462.591 146.495 462.098C146.185 461.492 145.773 461.007 145.297 460.689H111.209C110.882 460.689 110.569 460.503 110.338 460.173C110.107 459.843 109.977 459.395 109.977 458.928V457.541C109.977 457.074 110.107 456.626 110.338 456.296C110.569 455.966 110.882 455.78 111.209 455.78H124.604L118.428 454.371L99.445 450.039L88.3616 447.511C87.5141 447.319 86.648 447.615 85.9532 448.335C85.2584 449.055 84.7918 450.139 84.6556 451.349L83.5811 460.957C83.45 462.166 83.6587 463.401 84.1618 464.392C84.6649 465.383 85.4217 466.049 86.2671 466.246V466.246Z" fill="#23D997"/>
<path id="Vector_5" d="M133.529 464.908V518.586C133.53 519.809 133.87 520.982 134.475 521.846C135.08 522.711 135.901 523.198 136.756 523.2H143.572C144.428 523.198 145.248 522.711 145.853 521.847C146.458 520.982 146.799 519.809 146.8 518.586V464.908C146.801 463.89 146.564 462.9 146.125 462.098C145.8 461.481 145.369 460.996 144.873 460.689H135.45C134.957 460.998 134.528 461.483 134.204 462.098C133.766 462.901 133.528 463.89 133.529 464.908V464.908Z" fill="#23D997"/>
<path id="Vector_6" d="M112.988 374.055C113.022 374.533 113.109 375.001 113.244 375.442C113.449 376.115 113.765 376.708 114.166 377.168L114.18 377.182L133.627 399.728L133.913 400.052L137.939 404.722L139.157 406.131H160.215L159.002 404.722L142.36 385.423L131.207 372.491L122.529 362.433C122.021 361.842 121.398 361.488 120.745 361.419C120.742 361.415 120.739 361.412 120.735 361.412C120.541 361.392 120.347 361.397 120.153 361.426C119.864 361.468 119.58 361.567 119.311 361.722C119.126 361.817 118.951 361.945 118.788 362.102C118.482 362.369 118.21 362.71 117.985 363.109L113.757 370.554L113.693 370.674C113.424 371.143 113.224 371.683 113.103 372.263C112.982 372.844 112.943 373.453 112.988 374.055V374.055Z" fill="#23D997"/>
<path id="Vector_7" d="M114.18 377.182C114.547 378.492 115.08 379.693 115.753 380.725L128.699 400.601C129.012 401.012 129.378 401.331 129.778 401.538C130.177 401.746 130.601 401.84 131.025 401.813C131.449 401.786 131.866 401.64 132.251 401.382C132.635 401.125 132.981 400.761 133.267 400.313L133.627 399.728L133.785 399.475L139.378 390.508L141.783 386.648C141.943 386.41 142.082 386.146 142.197 385.86C142.256 385.719 142.31 385.571 142.36 385.423C142.561 384.765 142.654 384.049 142.631 383.331C142.614 382.72 142.512 382.121 142.33 381.568C142.148 381.014 141.89 380.52 141.571 380.112L126.56 363.715C124.904 361.9 122.818 361.076 120.745 361.419C120.742 361.415 120.739 361.412 120.735 361.412C120.274 361.494 119.819 361.631 119.375 361.82C119.178 361.898 118.985 361.996 118.788 362.102C117.516 362.786 116.387 363.926 115.511 365.412C114.558 367.013 113.93 368.957 113.695 371.032C113.461 373.107 113.629 375.234 114.181 377.182L114.18 377.182Z" fill="#2F2E41"/>
<path id="Vector_8" d="M108.033 345.049C121.675 345.049 132.734 329.243 132.734 309.746C132.734 290.249 121.675 274.443 108.033 274.443C94.3911 274.443 83.332 290.249 83.332 309.746C83.332 329.243 94.3911 345.049 108.033 345.049Z" fill="#23D997"/>
<path id="Vector_9" d="M101.456 461.379L110.617 463.464L110.824 463.513L124.751 466.69L133.528 468.698L146.431 471.642L146.8 471.726L148.717 472.163L157.524 474.17C158.369 474.361 159.233 474.065 159.926 473.346C160.619 472.628 161.084 471.546 161.22 470.339L161.989 463.464L162.294 460.731C162.294 460.717 162.299 460.703 162.299 460.689H111.209C110.882 460.689 110.569 460.503 110.338 460.173C110.107 459.843 109.977 459.395 109.977 458.928V457.541C109.977 457.074 110.107 456.626 110.338 456.296C110.569 455.966 110.882 455.78 111.209 455.78H127.353V448.081L126.368 447.856L121.499 446.743L103.545 442.651C102.699 442.459 101.834 442.754 101.14 443.472C100.446 444.191 99.9801 445.273 99.8441 446.482L99.4449 450.039L98.7697 456.097C98.6374 457.306 98.8458 458.541 99.3493 459.531C99.8527 460.521 100.61 461.186 101.456 461.379V461.379Z" fill="#23D997"/>
<path id="Vector_10" d="M74.4146 430.191C74.4146 458.97 76.46 476.185 108.001 471.254C108.045 471.247 108.084 471.24 108.129 471.233C113.754 470.439 119.318 468.918 124.751 466.69C127.575 465.512 130.32 463.975 132.952 462.098C133.573 461.647 134.169 461.175 134.756 460.689H111.209C110.882 460.689 110.569 460.503 110.338 460.173C110.107 459.843 109.977 459.395 109.977 458.928V457.541C109.977 457.074 110.107 456.626 110.338 456.296C110.569 455.966 110.882 455.78 111.209 455.78H127.353V411.293C127.355 409.925 127.736 408.613 128.413 407.645C129.09 406.677 130.008 406.133 130.966 406.131H144.1C143.986 405.666 143.873 405.194 143.75 404.722C142.517 399.849 141.057 395.1 139.378 390.508C137.078 384.131 134.341 378.096 131.207 372.491C129.025 368.585 126.575 365.001 123.894 361.792C118.951 355.96 113.569 352.354 108.109 352.354C87.9722 352.354 74.4146 401.411 74.4146 430.191Z" fill="#2F2E41"/>
<path id="Vector_11" d="M107.514 322.831L107.489 321.511C109.206 321.443 110.72 321.289 111.857 320.101C112.18 319.745 112.445 319.294 112.635 318.779C112.824 318.263 112.934 317.696 112.956 317.114C112.976 316.759 112.939 316.402 112.847 316.071C112.754 315.739 112.61 315.443 112.424 315.205C111.669 314.293 110.454 314.588 109.568 315.169L108.805 315.669L110.269 300.372L111.184 300.551L109.938 313.563C110.448 313.293 110.997 313.209 111.536 313.32C112.074 313.431 112.584 313.732 113.02 314.197C113.313 314.563 113.544 315.021 113.693 315.535C113.841 316.049 113.905 316.605 113.879 317.161C113.852 317.942 113.706 318.705 113.451 319.397C113.195 320.089 112.838 320.693 112.402 321.167C110.94 322.693 109.041 322.769 107.514 322.831Z" fill="#2F2E41"/>
<path id="Vector_12" d="M120.678 301.673H115.706V302.992H120.678V301.673Z" fill="#2F2E41"/>
<path id="Vector_13" d="M104.986 301.673H100.014V302.992H104.986V301.673Z" fill="#2F2E41"/>
<path id="Vector_14" d="M88.3195 300.046C90.2406 295.913 93.6209 294.161 96.9542 293.735C100.706 293.255 104.331 294.289 107.995 295.294C112.026 296.4 116.293 297.434 120.355 296.036C122.152 295.442 123.831 294.273 125.266 292.616C126.701 290.959 127.854 288.859 128.638 286.473C130.125 281.818 130.446 276.572 129.545 271.619C128.484 266.359 126.329 261.684 123.366 258.215C117.52 251.069 109.609 247.857 101.999 248.16C94.4188 248.439 87.0921 252.121 81.0573 258.684C75.0124 265.483 70.7586 275.011 68.9904 285.71C67.1413 296.322 67.7437 307.504 70.7075 317.587C72.3726 323.107 74.7809 328.085 76.6392 333.466C78.3694 338.477 79.7019 344.303 78.6253 349.892C78.152 352.385 77.2429 354.665 75.9834 356.518C74.724 358.371 73.1555 359.736 71.4255 360.484C69.8414 361.079 68.1652 360.921 66.649 360.037C65.1327 359.152 63.8585 357.588 63.0178 355.579C61.2773 351.656 61.2357 346.519 63.849 343.352C64.5079 342.54 65.2754 341.928 66.1049 341.554C66.9344 341.179 67.8085 341.05 68.6741 341.173C69.5397 341.297 70.3786 341.67 71.14 342.272C71.9013 342.873 72.5692 343.69 73.1028 344.671C74.163 346.639 74.6376 349.126 74.4236 351.59C74.2949 352.836 75.6288 353.374 75.7588 352.116C76.0706 349.51 75.7248 346.829 74.7829 344.553C73.841 342.277 72.3643 340.552 70.6158 339.687C68.8673 338.821 66.9607 338.871 65.2355 339.828C63.5103 340.784 62.0788 342.584 61.1958 344.908C59.6199 349.143 60.4702 354.251 62.4707 357.871C63.5028 359.799 64.9018 361.261 66.5003 362.083C68.0987 362.904 69.8289 363.05 71.4838 362.503C75.1253 361.301 78.1043 357.165 79.5052 352.304C81.0648 346.892 80.3502 340.854 78.8298 335.602C77.1863 329.926 74.7458 324.835 72.8157 319.365C71.0681 314.422 69.9561 309.07 69.5325 303.565C68.6848 292.51 70.4403 281.366 74.5214 271.897C78.6812 262.575 85.0304 255.679 92.4284 252.447C99.7729 249.074 107.702 249.374 114.911 253.296C121.947 257.258 128.74 265.892 128.659 277.489C128.624 282.442 127.337 287.494 124.683 290.798C121.51 294.746 117.092 295.084 113.104 294.468C109.09 293.848 105.193 292.172 101.162 291.745C97.6559 291.373 93.8734 291.76 90.7429 294.249C89.2851 295.411 88.0439 297.057 87.124 299.047C86.6295 300.111 87.8282 301.103 88.3196 300.046L88.3195 300.046Z" fill="#2F2E41"/>
<path id="Vector_15" d="M307.165 15.6924C310.197 15.6924 312.655 12.1795 312.655 7.84619C312.655 3.51286 310.197 0 307.165 0C304.133 0 301.675 3.51286 301.675 7.84619C301.675 12.1795 304.133 15.6924 307.165 15.6924Z" fill="#3F3D56"/>
<path id="Vector_16" d="M326.13 15.6924C329.162 15.6924 331.62 12.1795 331.62 7.84619C331.62 3.51286 329.162 0 326.13 0C323.098 0 320.64 3.51286 320.64 7.84619C320.64 12.1795 323.098 15.6924 326.13 15.6924Z" fill="#3F3D56"/>
<path id="Vector_17" d="M92.25 386.451C92.2894 386.579 92.3337 386.704 92.3829 386.824C92.4324 386.951 92.4867 387.073 92.5456 387.191L103.348 409.413L104.186 411.138L112.998 429.254L121.499 446.743L124.939 453.829C125.031 454.022 125.135 454.203 125.249 454.371C125.781 455.171 126.496 455.671 127.265 455.78H127.353V425.556L126.368 423.528L115.314 400.792L103.442 376.372C102.953 375.368 102.205 374.681 101.363 374.463C100.52 374.246 99.6517 374.514 98.9474 375.21L95.3054 378.823L93.3488 380.767C92.7302 381.382 92.2817 382.287 92.081 383.325C91.8804 384.364 91.9401 385.469 92.25 386.451V386.451Z" fill="#23D997"/>
<g id="head3">
<path id="Vector_18" d="M314.375 143.607C322.553 143.607 329.182 134.132 329.182 122.445C329.182 110.757 322.553 101.283 314.375 101.283C306.197 101.283 299.568 110.757 299.568 122.445C299.568 134.132 306.197 143.607 314.375 143.607Z" fill="#E4E4E4"/>
<path id="Vector_19" d="M310.88 131.328C309.92 131.29 308.726 131.242 307.806 130.282C307.532 129.984 307.306 129.604 307.146 129.169C306.985 128.733 306.893 128.253 306.876 127.762C306.86 127.413 306.9 127.063 306.994 126.739C307.087 126.416 307.232 126.128 307.417 125.897C307.691 125.605 308.012 125.415 308.351 125.346C308.689 125.276 309.035 125.328 309.355 125.498L308.572 117.314L309.147 117.201L310.068 126.823L309.588 126.508C309.315 126.281 309.004 126.163 308.687 126.167C308.371 126.171 308.062 126.297 307.791 126.531C307.675 126.681 307.584 126.868 307.526 127.076C307.468 127.284 307.444 127.509 307.457 127.733C307.471 128.098 307.54 128.456 307.659 128.78C307.778 129.104 307.945 129.388 308.148 129.611C308.864 130.359 309.816 130.455 310.896 130.499L310.88 131.328Z" fill="#2F2E41"/>
<path id="Vector_20" d="M305.727 118.019H302.6V118.849H305.727V118.019Z" fill="#2F2E41"/>
<path id="Vector_21" d="M315.123 161.611C308.743 161.611 302.507 158.908 297.203 153.842C291.898 148.777 287.764 141.577 285.322 133.153C282.881 124.729 282.242 115.46 283.487 106.517C284.731 97.5743 287.803 89.36 292.314 82.9126C296.825 76.4653 302.573 72.0746 308.83 70.2957C315.087 68.5169 321.573 69.4298 327.467 72.919C333.361 76.4082 338.398 82.317 341.943 89.8983C345.487 97.4795 347.379 106.393 347.379 115.51C347.369 127.733 343.968 139.451 337.921 148.093C331.874 156.736 323.675 161.598 315.123 161.611V161.611ZM315.123 71.1452C308.984 71.1451 302.982 73.7471 297.877 78.622C292.772 83.4969 288.793 90.4259 286.444 98.5326C284.094 106.639 283.48 115.56 284.677 124.166C285.875 132.772 288.832 140.677 293.173 146.882C297.514 153.086 303.045 157.312 309.067 159.024C315.089 160.736 321.33 159.857 327.002 156.499C332.674 153.141 337.522 147.455 340.933 140.159C344.344 132.863 346.165 124.285 346.165 115.51C346.155 103.748 342.882 92.4714 337.063 84.1542C331.243 75.837 323.353 71.1585 315.123 71.1452V71.1452Z" fill="#CACACA"/>
<path id="Vector_22" d="M315.598 118.019H312.471V118.849H315.598V118.019Z" fill="#2F2E41"/>
<path id="Vector_23" d="M315.749 106.802C313.95 110.164 311.094 112.42 308.076 111.886C306.675 111.68 305.356 110.847 304.307 109.505C303.258 108.163 302.533 106.381 302.235 104.414C301.975 102.476 302.045 100.477 302.439 98.586C302.833 96.6946 303.54 94.9664 304.499 93.5468C306.533 90.4886 309.445 88.8434 312.327 88.2793C315.052 87.8211 317.814 88.1906 320.432 89.3634C323.051 90.5362 325.466 92.4861 327.521 95.0853C329.594 97.6338 331.249 100.804 332.367 104.37C333.445 107.909 333.958 111.747 333.87 115.605C333.798 119.443 333.183 123.219 332.061 126.707C330.939 130.194 329.334 133.321 327.343 135.896C326.842 136.522 326.318 137.109 325.772 137.654C325.313 138.115 324.877 137.036 325.333 136.579C327.362 134.461 329.071 131.779 330.357 128.694C331.644 125.608 332.481 122.184 332.818 118.625C333.197 115.059 333.028 111.418 332.324 107.954C331.619 104.49 330.396 101.287 328.739 98.567C327.065 95.8402 325.028 93.6172 322.747 92.028C320.466 90.4389 317.986 89.5154 315.452 89.3115C310.357 88.9939 303.99 92.2449 303.037 100.351C302.61 103.984 303.56 107.803 305.889 109.622C307.123 110.508 308.513 110.852 309.883 110.608C311.253 110.364 312.541 109.544 313.585 108.253C314.11 107.639 314.583 106.941 314.997 106.173C315.333 105.545 316.089 106.165 315.749 106.802V106.802Z" fill="#2F2E41"/>
</g>
<path id="Vector_24" d="M90.5595 385.909L91.0473 387.31L91.0523 387.317L91.1854 387.691L99.105 410.159C99.5513 411.204 100.269 411.954 101.101 412.244C101.934 412.535 102.812 412.342 103.545 411.709L104.058 411.251L104.186 411.138L114.397 401.982C114.762 401.667 115.079 401.251 115.33 400.76C115.582 400.268 115.763 399.71 115.863 399.118C115.963 398.526 115.979 397.912 115.912 397.311C115.845 396.709 115.695 396.133 115.472 395.615L104.255 373.879C103.156 371.748 101.577 370.224 99.7833 369.563C97.9901 368.901 96.0921 369.141 94.4085 370.244C94.0285 370.489 93.6627 370.776 93.3143 371.103C91.6657 372.66 90.4744 375.028 89.9666 377.757C89.4588 380.486 89.6698 383.387 90.5595 385.909V385.909Z" fill="#2F2E41"/>
<path id="Vector_25" d="M148.717 460.689V513.719C148.718 514.942 149.059 516.115 149.664 516.98C150.269 517.844 151.09 518.331 151.945 518.333H158.761C159.617 518.331 160.437 517.844 161.042 516.979C161.647 516.115 161.988 514.942 161.989 513.719V460.689H148.717Z" fill="#23D997"/>
<path id="Vector_26" d="M108.991 457.541V458.928C108.992 459.662 109.17 460.372 109.495 460.939C109.82 461.507 110.272 461.896 110.775 462.041C110.844 462.056 110.913 462.077 110.982 462.084C111.056 462.091 111.13 462.098 111.209 462.098H187.182C188.402 462.097 189.572 461.405 190.435 460.173C191.298 458.941 191.783 457.27 191.785 455.526V411.293C191.783 409.55 191.298 407.879 190.435 406.647C189.572 405.415 188.402 404.722 187.182 404.722H130.966C129.747 404.724 128.578 405.417 127.716 406.649C126.854 407.881 126.369 409.551 126.368 411.293V454.371H111.209C110.62 454.371 110.056 454.705 109.641 455.3C109.225 455.894 108.991 456.7 108.991 457.541V457.541Z" fill="white"/>
<path id="Vector_27" d="M108.991 457.541V458.928C108.992 459.662 109.17 460.372 109.495 460.939C109.82 461.507 110.272 461.896 110.775 462.041C110.844 462.056 110.913 462.077 110.982 462.084C111.056 462.091 111.13 462.098 111.209 462.098H187.182C188.402 462.097 189.572 461.405 190.435 460.173C191.298 458.941 191.783 457.27 191.785 455.526V411.293C191.783 409.55 191.298 407.879 190.435 406.647C189.572 405.415 188.402 404.722 187.182 404.722H130.966C129.747 404.724 128.578 405.417 127.716 406.649C126.854 407.881 126.369 409.551 126.368 411.293V454.371H111.209C110.62 454.371 110.056 454.705 109.641 455.3C109.225 455.894 108.991 456.7 108.991 457.541V457.541ZM109.977 458.928V457.541C109.977 457.074 110.107 456.626 110.338 456.296C110.569 455.966 110.882 455.78 111.209 455.78H127.353V411.293C127.355 409.925 127.736 408.613 128.413 407.645C129.09 406.677 130.008 406.133 130.966 406.131H187.182C188.14 406.131 189.059 406.675 189.738 407.643C190.416 408.611 190.797 409.924 190.799 411.293V455.526C190.797 456.896 190.416 458.209 189.738 459.177C189.059 460.145 188.14 460.689 187.182 460.689H111.209C110.882 460.689 110.569 460.503 110.338 460.173C110.107 459.843 109.977 459.395 109.977 458.928Z" fill="#3F3D56"/>
<path id="Vector_28" d="M159.076 438.827C161.169 438.827 162.866 436.402 162.866 433.411C162.866 430.419 161.169 427.994 159.076 427.994C156.983 427.994 155.286 430.419 155.286 433.411C155.286 436.402 156.983 438.827 159.076 438.827Z" fill="#23D997"/>
<path id="Vector_29" d="M127.368 455.118H126.383V461.457H127.368V455.118Z" fill="#3F3D56"/>
<path id="Vector_30" d="M527.393 27.8391H265.141C264.98 27.8391 264.826 27.7477 264.712 27.585C264.598 27.4223 264.534 27.2016 264.534 26.9715C264.534 26.7414 264.598 26.5207 264.712 26.358C264.826 26.1953 264.98 26.1039 265.141 26.1039H527.393C527.554 26.1039 527.708 26.1953 527.822 26.358C527.936 26.5207 528 26.7414 528 26.9715C528 27.2016 527.936 27.4223 527.822 27.585C527.708 27.7477 527.554 27.8391 527.393 27.8391Z" fill="#CACACA"/>
<path id="Vector_31" d="M288.2 15.6924C291.232 15.6924 293.69 12.1795 293.69 7.84619C293.69 3.51286 291.232 0 288.2 0C285.168 0 282.71 3.51286 282.71 7.84619C282.71 12.1795 285.168 15.6924 288.2 15.6924Z" fill="#3F3D56"/>
<g id="head1">
<path id="Vector_32" d="M313.326 392.753C321.61 392.753 328.326 383.155 328.326 371.315C328.326 359.475 321.61 349.877 313.326 349.877C305.042 349.877 298.326 359.475 298.326 371.315C298.326 383.155 305.042 392.753 313.326 392.753Z" fill="#E4E4E4"/>
<path id="Vector_33" d="M304.994 379.261L304.978 378.46C306.021 378.418 306.94 378.325 307.631 377.603C307.827 377.387 307.988 377.113 308.103 376.8C308.218 376.487 308.285 376.142 308.298 375.789C308.311 375.574 308.288 375.357 308.232 375.156C308.176 374.955 308.088 374.775 307.975 374.63C307.714 374.404 307.415 374.282 307.11 374.278C306.805 374.275 306.505 374.388 306.241 374.608L305.777 374.912L306.667 365.622L307.222 365.731L306.465 373.633C306.775 373.469 307.109 373.418 307.436 373.485C307.762 373.553 308.072 373.736 308.337 374.018C308.515 374.24 308.655 374.518 308.745 374.83C308.836 375.143 308.875 375.48 308.859 375.817C308.842 376.292 308.753 376.756 308.598 377.176C308.444 377.596 308.226 377.963 307.962 378.25C307.074 379.177 305.92 379.224 304.994 379.261Z" fill="#2F2E41"/>
<path id="Vector_34" d="M312.987 366.413H309.968V367.214H312.987V366.413Z" fill="#2F2E41"/>
<path id="Vector_35" d="M303.458 366.413H300.439V367.214H303.458V366.413Z" fill="#2F2E41"/>
<path id="Vector_36" d="M311.068 357.47C307.449 361.02 301.891 359.063 300.251 353.065C299.85 351.606 299.672 350.042 299.727 348.476C299.782 346.911 300.069 345.38 300.57 343.986C301.169 342.525 301.986 341.27 302.961 340.309C303.937 339.348 305.048 338.705 306.217 338.424C309.32 337.505 312.528 338.739 315.365 340.532C315.467 340.608 315.584 340.638 315.698 340.616C315.812 340.595 315.92 340.525 316.005 340.414C318.714 337.326 322.651 338.667 325.429 340.825C328.434 343.236 330.975 346.672 332.826 350.826C334.714 354.944 335.894 359.643 336.269 364.537C336.612 369.827 336.008 375.154 334.512 380.017C333.017 384.881 330.681 389.12 327.722 392.336C327.185 392.911 327.71 394.222 328.255 393.639C331.242 390.485 333.64 386.328 335.237 381.535C336.833 376.742 337.579 371.462 337.409 366.159C337.239 360.856 336.158 355.695 334.262 351.131C332.365 346.567 329.711 342.741 326.535 339.99C323.202 337.126 318.558 335.587 315.258 339.347L315.898 339.229C313.061 337.435 309.952 336.17 306.826 336.758C304.17 337.257 301.56 339.077 300.037 342.319C299.369 343.807 298.93 345.482 298.75 347.231C298.571 348.981 298.655 350.766 298.998 352.465C299.331 354.145 299.934 355.691 300.757 356.981C301.58 358.272 302.602 359.271 303.742 359.901C305.019 360.63 306.4 360.908 307.768 360.711C309.136 360.515 310.451 359.85 311.601 358.773C312.158 358.227 311.631 356.918 311.068 357.47V357.47Z" fill="#2F2E41"/>
<path id="head1_2" d="M315.123 412.989C308.743 412.989 302.507 410.285 297.203 405.22C291.898 400.154 287.764 392.954 285.322 384.53C282.881 376.106 282.242 366.837 283.487 357.894C284.731 348.952 287.803 340.737 292.314 334.29C296.826 327.843 302.573 323.452 308.83 321.673C315.087 319.894 321.573 320.807 327.467 324.297C333.361 327.786 338.399 333.695 341.943 341.276C345.487 348.857 347.379 357.77 347.379 366.888C347.369 379.111 343.968 390.829 337.921 399.471C331.874 408.114 323.675 412.975 315.123 412.989ZM315.123 322.523C308.984 322.523 302.982 325.125 297.877 329.999C292.772 334.874 288.793 341.803 286.444 349.91C284.094 358.017 283.48 366.937 284.677 375.543C285.875 384.149 288.832 392.054 293.173 398.259C297.514 404.464 303.045 408.689 309.067 410.401C315.088 412.113 321.33 411.234 327.002 407.877C332.674 404.519 337.522 398.832 340.933 391.536C344.344 384.241 346.165 375.663 346.165 366.888C346.156 355.126 342.882 343.849 337.063 335.532C331.243 327.215 323.353 322.536 315.123 322.523Z" fill="#CACACA"/>
</g>
<g id="head2">
<path id="Vector_37" d="M315.123 283.222C308.743 283.222 302.507 280.518 297.203 275.453C291.898 270.387 287.764 263.187 285.322 254.763C282.881 246.34 282.242 237.07 283.487 228.128C284.731 219.185 287.803 210.971 292.314 204.523C296.825 198.076 302.573 193.685 308.83 191.906C315.087 190.127 321.573 191.04 327.467 194.53C333.361 198.019 338.398 203.928 341.943 211.509C345.487 219.09 347.379 228.003 347.379 237.121C347.369 249.343 343.968 261.061 337.921 269.704C331.874 278.347 323.675 283.208 315.123 283.222V283.222ZM315.123 192.756C308.984 192.756 302.982 195.358 297.877 200.233C292.772 205.107 288.793 212.036 286.444 220.143C284.094 228.25 283.48 237.17 284.677 245.776C285.875 254.383 288.832 262.288 293.173 268.492C297.514 274.697 303.045 278.922 309.067 280.634C315.089 282.346 321.33 281.467 327.002 278.11C332.674 274.752 337.522 269.065 340.933 261.769C344.344 254.473 346.165 245.896 346.165 237.121C346.155 225.359 342.882 214.082 337.063 205.765C331.243 197.447 323.353 192.769 315.123 192.756V192.756Z" fill="#CACACA"/>
<path id="Vector_38" d="M312.927 263.42C321.388 263.42 328.246 253.618 328.246 241.527C328.246 229.435 321.388 219.633 312.927 219.633C304.467 219.633 297.609 229.435 297.609 241.527C297.609 253.618 304.467 263.42 312.927 263.42Z" fill="#E4E4E4"/>
<path id="Vector_39" d="M307.83 250.717C306.837 250.678 305.601 250.629 304.649 249.635C304.365 249.326 304.132 248.933 303.966 248.483C303.8 248.033 303.705 247.536 303.688 247.028C303.67 246.666 303.712 246.304 303.809 245.97C303.906 245.635 304.055 245.337 304.246 245.099C304.53 244.796 304.862 244.6 305.213 244.528C305.563 244.456 305.92 244.51 306.252 244.686L305.442 236.218L306.037 236.102L306.99 246.057L306.493 245.731C306.21 245.495 305.888 245.373 305.561 245.378C305.234 245.382 304.914 245.512 304.634 245.754C304.513 245.91 304.419 246.103 304.359 246.318C304.299 246.534 304.275 246.766 304.288 246.997C304.303 247.376 304.374 247.745 304.497 248.081C304.621 248.416 304.793 248.71 305.003 248.941C305.744 249.715 306.729 249.814 307.846 249.859L307.83 250.717Z" fill="#2F2E41"/>
<path id="Vector_40" d="M302.498 236.948H299.263V237.807H302.498V236.948Z" fill="#2F2E41"/>
<path id="Vector_41" d="M312.711 236.948H309.475V237.807H312.711V236.948Z" fill="#2F2E41"/>
<path id="Vector_42" d="M313.699 264.103L324.294 258.226C326.027 257.265 327.769 256.333 329.493 255.338C330.231 254.971 330.911 254.398 331.493 253.653C332.001 252.885 332.346 251.929 332.491 250.894C332.779 248.614 332.872 246.293 332.766 243.981C332.745 241.503 332.603 239.03 332.339 236.58C331.876 231.977 330.789 227.547 329.14 223.538C326.168 216.571 321.049 211.328 315.16 211.746C312.393 211.884 309.745 213.388 307.666 216.002C307.455 216.363 307.218 216.692 306.959 216.982C306.779 217.079 306.583 217.097 306.395 217.036C306.148 217.014 305.901 216.996 305.653 216.984C304.794 216.932 303.933 216.984 303.08 217.138C301.526 217.378 300.053 218.253 298.836 219.657C298.304 220.262 297.861 221.011 297.531 221.861C297.201 222.711 296.992 223.646 296.915 224.611C296.875 225.507 296.978 226.405 297.219 227.235C297.459 228.065 297.829 228.805 298.301 229.398C299.566 230.921 301.369 230.385 302.885 230.27L308.44 229.85L311.255 229.637C311.834 229.593 311.833 230.881 311.255 230.925L303.774 231.491C302.563 231.658 301.347 231.729 300.13 231.702C299.206 231.642 298.323 231.135 297.627 230.263C296.992 229.429 296.518 228.373 296.253 227.199C295.988 226.026 295.94 224.774 296.114 223.566C296.345 222.267 296.764 221.052 297.344 220C297.923 218.947 298.651 218.08 299.48 217.455C301.669 215.69 304.283 215.521 306.731 215.782L306.413 215.971C309.183 211.722 313.426 209.928 317.409 210.556C321.615 211.218 325.356 214.572 328.043 219.157C331.04 224.27 332.673 230.645 333.308 237.2C333.638 240.739 333.747 244.314 333.633 247.88C333.637 249.454 333.449 251.016 333.076 252.496C332.651 253.936 331.882 255.115 330.906 255.821C329.787 256.593 328.637 257.268 327.462 257.843L323.558 260.009L315.89 264.262L313.938 265.345C313.397 265.645 313.163 264.4 313.699 264.103V264.103Z" fill="#2F2E41"/>
<path id="Vector_43" d="M325.703 213.685C325.703 212.369 325.976 211.082 326.487 209.988C326.999 208.894 327.726 208.041 328.577 207.537C329.427 207.034 330.364 206.902 331.267 207.159C332.17 207.415 332.999 208.049 333.65 208.98C334.302 209.91 334.745 211.096 334.925 212.387C335.104 213.677 335.012 215.015 334.66 216.231C334.307 217.447 333.711 218.486 332.945 219.217C332.179 219.948 331.279 220.339 330.358 220.339C329.124 220.337 327.941 219.635 327.068 218.388C326.195 217.14 325.704 215.449 325.703 213.685V213.685ZM326.604 213.685C326.604 214.746 326.824 215.784 327.237 216.666C327.649 217.548 328.236 218.236 328.922 218.642C329.608 219.048 330.363 219.155 331.091 218.948C331.819 218.741 332.488 218.23 333.013 217.479C333.538 216.729 333.896 215.773 334.041 214.732C334.186 213.691 334.111 212.612 333.827 211.631C333.543 210.651 333.062 209.813 332.444 209.223C331.827 208.633 331.101 208.319 330.358 208.319C329.363 208.32 328.409 208.886 327.705 209.892C327.001 210.898 326.605 212.262 326.604 213.685Z" fill="#2F2E41"/>
</g>
<path id="Vector_44" d="M504.067 134.861H398.057C396.733 134.861 395.463 134.109 394.526 132.771C393.59 131.433 393.064 129.617 393.064 127.725C393.064 125.832 393.59 124.017 394.526 122.679C395.463 121.34 396.733 120.588 398.057 120.588H504.067C504.723 120.588 505.372 120.773 505.978 121.132C506.584 121.49 507.134 122.016 507.598 122.679C508.061 123.341 508.429 124.128 508.68 124.994C508.931 125.86 509.06 126.788 509.06 127.725C509.06 128.662 508.931 129.59 508.68 130.456C508.429 131.322 508.061 132.108 507.598 132.771C507.134 133.434 506.584 133.959 505.978 134.318C505.372 134.677 504.723 134.861 504.067 134.861V134.861Z" fill="#E4E4E4"/>
<path id="Vector_45" d="M469.883 110.433H398.057C396.733 110.433 395.463 109.681 394.526 108.343C393.59 107.004 393.064 105.189 393.064 103.297C393.064 101.404 393.59 99.5887 394.526 98.2504C395.463 96.912 396.733 96.1602 398.057 96.1602H469.883C470.538 96.1602 471.188 96.3448 471.793 96.7034C472.399 97.062 472.95 97.5877 473.413 98.2504C473.877 98.913 474.245 99.6997 474.496 100.566C474.747 101.431 474.876 102.359 474.876 103.297C474.876 104.234 474.747 105.162 474.496 106.027C474.245 106.893 473.877 107.68 473.413 108.343C472.95 109.005 472.399 109.531 471.793 109.89C471.188 110.248 470.538 110.433 469.883 110.433V110.433Z" fill="#E4E4E4"/>
<path id="Vector_46" d="M504.067 256.471H398.057C396.733 256.471 395.463 255.72 394.526 254.381C393.59 253.043 393.064 251.228 393.064 249.335C393.064 247.442 393.59 245.627 394.526 244.289C395.463 242.951 396.733 242.199 398.057 242.199H504.067C505.391 242.199 506.661 242.951 507.598 244.289C508.534 245.627 509.06 247.442 509.06 249.335C509.06 251.228 508.534 253.043 507.598 254.381C506.661 255.72 505.391 256.471 504.067 256.471Z" fill="#E4E4E4"/>
<path id="Vector_47" d="M469.883 232.043H398.057C396.734 232.041 395.465 231.288 394.53 229.95C393.595 228.612 393.069 226.798 393.069 224.907C393.069 223.015 393.595 221.202 394.53 219.863C395.465 218.525 396.734 217.773 398.057 217.77H469.883C471.207 217.77 472.477 218.522 473.413 219.861C474.35 221.199 474.876 223.014 474.876 224.907C474.876 226.799 474.35 228.615 473.413 229.953C472.477 231.291 471.207 232.043 469.883 232.043V232.043Z" fill="#E4E4E4"/>
<path id="Vector_48" d="M504.067 386.239H398.057C396.733 386.239 395.463 385.487 394.526 384.148C393.59 382.81 393.064 380.995 393.064 379.102C393.064 377.21 393.59 375.394 394.526 374.056C395.463 372.718 396.733 371.966 398.057 371.966H504.067C505.391 371.966 506.661 372.718 507.598 374.056C508.534 375.394 509.06 377.21 509.06 379.102C509.06 380.995 508.534 382.81 507.598 384.148C506.661 385.487 505.391 386.239 504.067 386.239Z" fill="#E4E4E4"/>
<path id="Vector_49" d="M469.883 361.81H398.057C396.733 361.81 395.463 361.058 394.526 359.72C393.59 358.382 393.064 356.567 393.064 354.674C393.064 352.781 393.59 350.966 394.526 349.628C395.463 348.289 396.733 347.538 398.057 347.538H469.883C471.207 347.538 472.477 348.289 473.413 349.628C474.35 350.966 474.876 352.781 474.876 354.674C474.876 356.567 474.35 358.382 473.413 359.72C472.477 361.058 471.207 361.81 469.883 361.81Z" fill="#E4E4E4"/>
<path id="Vector_50" d="M231.899 544H0.607064C0.446061 544 0.291651 543.909 0.177805 543.746C0.0639579 543.583 0 543.363 0 543.132C0 542.902 0.0639579 542.682 0.177805 542.519C0.291651 542.356 0.446061 542.265 0.607064 542.265H231.899C232.06 542.265 232.214 542.356 232.328 542.519C232.442 542.682 232.506 542.902 232.506 543.132C232.506 543.363 232.442 543.583 232.328 543.746C232.214 543.909 232.06 544 231.899 544Z" fill="#3F3D56"/>
</g>
<defs>
<clipPath id="clip0_4_211">
<rect width="528" height="544" fill="white"/>
</clipPath>
</defs>
</svg>
