<svg width="58" height="58" viewBox="0 0 58 58" fill="none" xmlns="http://www.w3.org/2000/svg">
<g clip-path="url(#clip0_12_2)">
<path d="M29.8941 12.9993L16.2641 26.6293C14.6812 28.2122 12.6029 29.0024 10.527 29.0024C6.04404 29.0024 2.41663 25.3823 2.41663 20.8921C2.41663 18.8138 3.20688 16.733 4.78738 15.1525L18.1757 1.76658C19.3526 0.589667 20.8945 0 22.4411 0C27.7723 0 30.508 6.49117 26.7065 10.2926L14.819 22.1802C13.2868 23.7123 10.7952 23.7123 9.26546 22.1802C7.73329 20.6504 7.73329 18.1588 9.26546 16.6267L18.8596 7.0325L20.8606 9.0335L11.2665 18.6277C10.8363 19.0554 10.8363 19.7514 11.2665 20.1792C11.6942 20.6093 12.3902 20.6093 12.818 20.1792L24.7055 8.294C27.6998 5.29008 23.1685 0.773333 20.1791 3.76517L6.79079 17.1535C4.72938 19.2149 4.72938 22.5668 6.79079 24.6307C8.85463 26.6897 12.2041 26.6897 14.2655 24.6307L27.8955 11.0007L29.8941 12.9993ZM31.4335 0C32.422 1.47175 32.9681 2.8275 33.1953 4.83333H50.75V32.7289C50.75 42.6542 36.25 38.6667 36.25 38.6667C36.25 38.6667 39.9185 53.1667 29.8748 53.1667H12.0833V33.6835C10.5608 33.8648 9.66663 33.9977 7.24996 33.3621V58H31.8734C39.5173 58 55.5833 40.5444 55.5833 34.7662V0H31.4335ZM43.5 14.5H35.2277L33.3113 16.4164L32.811 16.9167H43.5V14.5ZM43.5 21.75H27.9777L25.561 24.1667H43.5V21.75ZM43.5 29H20.7277L19.6813 30.0464C19.169 30.5612 18.5962 31.001 18.0162 31.4167H43.5V29Z" fill="#378BA9"/>
</g>
<defs>
<clipPath id="clip0_12_2">
<rect width="58" height="58" fill="white"/>
</clipPath>
</defs>
</svg>
