<svg width="58" height="58" viewBox="0 0 58 58" fill="none" xmlns="http://www.w3.org/2000/svg">
<g clip-path="url(#clip0_6_268)">
<path fill-rule="evenodd" clip-rule="evenodd" d="M45.9167 58H12.0833C5.41092 58 0 52.5891 0 45.9167V12.0833C0 5.41092 5.41092 0 12.0833 0H45.9167C52.5915 0 58 5.41092 58 12.0833V45.9167C58 52.5891 52.5915 58 45.9167 58ZM45.5759 42.6953C47.0984 42.6953 48.3333 41.4579 48.3333 39.9354V18.0646C48.3333 16.5421 47.0984 15.3048 45.5759 15.3048H12.4241C10.9016 15.3048 9.66667 16.5421 9.66667 18.0646V39.9354C9.66667 41.4579 10.9016 42.6953 12.4241 42.6953H45.5759ZM29 32.8884L13.949 22.446L13.9152 41.0833H44.0196V22.446L29 32.8884V32.8884ZM43.2898 16.9167C39.0727 19.8529 29 26.9531 29 26.9531L14.6281 16.9167H43.2898V16.9167Z" fill="#3AA9D1"/>
</g>
<defs>
<clipPath id="clip0_6_268">
<rect width="58" height="58" fill="white"/>
</clipPath>
</defs>
</svg>
