<svg width="512" height="537" viewBox="0 0 512 537" fill="none" xmlns="http://www.w3.org/2000/svg">
<g id="undraw_javascript_frameworks_-8-qpc 1" clip-path="url(#clip0_2_2)">
<path id="Vector" d="M496.059 433.857C496.059 467.136 478.566 478.757 456.989 478.757C456.487 478.757 455.987 478.75 455.49 478.735C454.491 478.711 453.5 478.661 452.522 478.582C433.047 477.025 417.916 464.805 417.916 433.857C417.916 401.832 454.097 361.419 456.826 358.419L456.831 358.416C456.935 358.299 456.989 358.241 456.989 358.241C456.989 358.241 496.059 400.576 496.059 433.857Z" fill="#3F3D56"/>
<path id="Vector_2" d="M455.563 473.665L469.855 451.083L455.528 476.143L455.49 478.735C454.491 478.711 453.499 478.661 452.522 478.582L454.062 445.288L454.051 445.03L454.078 444.981L454.222 441.836L439.86 416.711L454.265 439.477L454.301 440.144L455.465 414.988L443.17 389.028L455.615 410.569L456.826 358.419L456.831 358.241V358.416L456.63 399.541L468.869 383.236L456.579 403.082L456.256 425.605L467.685 403.991L456.207 428.922L456.028 441.443L472.619 411.355L455.965 445.813L455.563 473.665Z" fill="#F2F2F2"/>
<g id="Tree">
<path id="Vector_3" d="M90.1398 469.632C90.1398 489.572 79.6581 496.535 66.7292 496.535C66.4282 496.535 66.1288 496.531 65.831 496.522C65.2322 496.508 64.6384 496.478 64.0526 496.43C52.3831 495.497 43.3168 488.175 43.3168 469.632C43.3168 450.442 64.9963 426.227 66.6315 424.429L66.6348 424.427C66.6966 424.357 66.7291 424.322 66.7291 424.322C66.7291 424.322 90.1398 449.689 90.1398 469.632Z" fill="#3F3D56"/>
<path id="Vector_4" d="M65.8749 493.484L74.4384 479.953L65.8538 494.969L65.831 496.522C65.2323 496.508 64.6384 496.478 64.0526 496.43L64.9752 476.481L64.9687 476.326L64.9849 476.297L65.0712 474.412L56.4655 459.358L65.0972 472.999L65.1184 473.398L65.8164 458.325L58.4489 442.77L65.9058 455.677L66.6315 424.429L66.6348 424.322V424.427L66.5144 449.069L73.8477 439.3L66.4834 451.191L66.2898 464.687L73.1383 451.736L66.2605 466.674L66.1532 474.177L76.0947 456.148L66.1158 476.795L65.8749 493.484Z" fill="#F2F2F2"/>
</g>
<path id="Vector_5" d="M273.844 146.841H89.0623V345.957H273.844V146.841Z" fill="url(#paint0_linear_2_2)"/>
<path id="Vector_6" d="M269.878 151.326H93.0276V341.472H269.878V151.326Z" fill="white"/>
<path id="Vector_7" d="M263.534 158.501H99.372V334.297H263.534V158.501Z" fill="#23D997"/>
<g id="View">
<path id="Vector_8" d="M211.5 197.55H231.532L181.453 295.249L131.375 197.55H169.685L181.453 220.204L192.971 197.55H211.5Z" fill="#41B883"/>
<path id="Vector_9" d="M131.375 197.55L181.453 295.249L231.532 197.55H211.5L181.453 256.169L151.156 197.55H131.375Z" fill="#41B883"/>
<path id="Vector_10" d="M151.156 197.55L181.453 256.452L211.5 197.55H192.971L181.453 220.204L169.685 197.55H151.156Z" fill="#35495E"/>
</g>
<g id="Group" opacity="0.5">
<path id="Vector_11" d="M246.087 0H3.4126V119.934H246.087V0Z" fill="url(#paint1_linear_2_2)"/>
</g>
<path id="Vector_12" d="M242.915 1.54102H6.58481V116.346H242.915V1.54102Z" fill="white"/>
<path id="Vector_13" d="M236.124 8.71637H13.3753V109.171H236.124V8.71637Z" fill="#23D997"/>
<g id="jQuery">
<path id="Vector_14" d="M198.105 41.7111L204.778 41.7527C204.778 41.7527 192.372 60.7649 191.359 62.3144C190.939 62.8348 190.576 63.4101 190.277 64.028C189.729 65.785 189.295 67.5848 188.978 69.4132L182.873 69.4477C182.873 69.4477 183.823 65.592 183.784 63.5383C183.749 61.7444 182.939 59.9525 182.485 58.1532C182.026 56.3318 181.403 52.7678 181.403 52.7678H187.68L188.545 56.6844L198.105 41.7111" fill="white"/>
<path id="Vector_15" d="M185.47 45.7207C186.701 46.5603 187.457 51.1918 187.457 51.1918C187.457 51.1918 181.014 51.2993 177.507 51.2993H174.477L170.797 69.4131H165.17C165.17 69.4131 168.672 49.7279 169.499 46.159C169.767 45.0034 171.334 45.2018 173.981 45.2018H178.208C180.938 45.2018 184.128 44.8075 185.47 45.7207M159.272 54.5426C159.34 53.6533 159.129 52.7654 158.677 52.0335C158.019 50.8856 157.411 50.6186 155.68 50.5573C150.79 50.3836 150.885 54.4813 150.885 54.4813L159.272 54.5426ZM164.575 49.8498C165.291 52.773 163.926 59.6413 163.926 59.6413C163.926 59.6413 156.794 59.5067 152.887 59.6413C151.673 59.6833 150.219 59.4919 149.857 60.131C149.349 61.0266 150.043 62.4052 150.632 62.9876C151.31 63.658 152.63 63.7345 153.104 63.8025C156.275 64.258 162.91 63.9202 162.91 63.9202L161.761 69.677C161.761 69.677 152.383 70.209 147.693 68.9428C146.79 68.7238 145.963 68.2138 145.312 67.4743C145.152 67.2788 145.013 67.0121 144.862 66.7817C144.609 66.3881 144.397 65.9634 144.23 65.5158C143.158 62.2872 144.355 56.102 145.529 52.7874C145.665 52.4035 145.836 51.9162 146.016 51.5022C146.241 50.9861 146.431 50.4033 146.611 50.0947C146.732 49.8819 146.881 49.7449 147.007 49.5441C147.153 49.3107 147.31 49.0861 147.476 48.8711C147.931 48.3191 148.44 47.8265 148.992 47.4027C150.946 45.7476 154.482 44.4626 158.731 44.9545C160.331 45.1405 162.747 45.7866 163.926 47.6472C164.233 48.3431 164.452 49.0848 164.575 49.8502V49.8498ZM138.765 45.1792L144.221 45.1429C144.221 45.1429 141.18 61.4575 139.631 69.4131H133.354C128.967 69.4131 125.06 70.0276 123.398 66.4755C121.785 63.0267 123.324 57.3552 124.047 53.5019C124.558 50.775 125.634 45.2014 125.634 45.2014L131.287 45.143C131.287 45.143 129.69 53.8204 129.025 58.1532C128.787 59.7051 128.296 61.1665 128.809 62.314C129.296 63.4062 129.978 63.4844 132.055 63.5383C132.713 63.5559 134.869 63.5383 134.869 63.5383L138.765 45.1792M113.225 56.9289C113.797 54.6332 114.63 52.1438 114.524 50.075C114.436 49.0955 114.133 48.1565 113.641 47.344C113.15 46.5316 112.486 45.8715 111.71 45.4244C110.444 44.9484 109.085 44.8794 107.786 45.2252C106.487 45.5709 105.298 46.3178 104.351 47.3826C102.817 49.2625 102.297 51.4585 101.754 54.4817C101.35 56.7259 101.018 59.0952 101.754 60.8455C103.057 63.9399 107.12 63.2641 111.494 63.2937C112.143 61.3257 112.68 59.1153 113.225 56.9288V56.9289ZM120.801 47.8723C121.424 52.9978 119.033 58.6552 117.385 63.5749C119.065 63.7465 120.537 63.5485 120.643 63.6901C120.753 63.8737 119.517 69.5625 119.086 69.5773C117.753 69.6164 113.336 69.658 111.494 69.658C105.483 69.658 99.8604 70.1008 96.9929 66.7207C95.8365 65.1925 95.0861 63.3254 94.8282 61.3353C94.5904 58.5396 94.8106 55.7183 95.4777 53.0129C95.9407 50.7901 96.6688 48.6489 97.6421 46.648C100.168 41.6621 104.561 37.961 111.927 38.8154C113.593 39.052 115.207 39.6327 116.688 40.5287C116.777 40.5876 117.087 40.8666 117.158 40.9155C118.89 42.1617 120.467 45.1356 120.801 47.8723H120.801ZM94.207 45.2089C93.8435 47.0814 93.48 49.2041 93.0968 51.0544H87.0366C87.506 49.0033 87.8655 46.9641 88.3353 45.1796C90.2745 45.1796 92.0775 45.2089 94.2074 45.2089M86.8201 52.7681H92.6641C91.8999 57.5511 90.3869 65.2664 89.201 70.6371C88.4587 73.9981 87.963 76.4506 85.9544 78.2252C85.7746 78.3844 85.6709 78.3087 85.5214 78.4701C85.1513 78.8692 83.4392 79.3322 82.4916 79.4492C80.767 79.5588 79.0381 79.5523 77.3142 79.4298C77.8098 77.3811 78.3705 74.9209 78.8123 73.0846C83.4289 73.7167 83.5457 68.7815 84.4395 64.028C84.9566 61.2814 86.5238 53.8694 86.8201 52.7681" fill="white"/>
<path id="Vector_16" d="M73.1844 65.252L73.0592 65.6191C70.9253 70.3189 67.1438 73.2023 61.7502 73.3295C59.5184 73.3638 57.3055 72.8633 55.257 71.861C51.925 70.1251 49.1881 67.2016 47.4657 63.5384C45.234 58.65 44.8315 51.85 49.4718 46.7711C49.5435 46.7711 48.9089 47.8724 48.9806 47.8724L48.8529 48.3424C45.5091 60.1822 55.8112 70.3288 65.8258 69.1683C68.5828 68.7747 71.1588 67.4037 73.1844 65.252" fill="#21609B"/>
<path id="Vector_17" d="M67.1241 60.3563C69.6437 60.3345 72.0542 59.1913 73.8339 57.1742C72.4704 61.0884 68.5225 63.6042 63.2287 62.8041C58.7958 62.1333 54.5732 57.0886 54.1383 52.0336C53.8203 48.3547 54.9539 46.1591 56.822 43.4956C56.3326 44.4696 56.0096 45.539 55.8697 46.6481C55.1601 54.6062 61.4907 60.3143 67.1241 60.3563" fill="#21609B"/>
<path id="Vector_18" d="M73.5807 50.4718C73.1891 51.4879 70.9341 53.4066 69.9381 53.6465C65.9946 54.5967 63.4692 52.4817 62.1462 50.0751C61.901 49.5643 61.692 49.0324 61.521 48.4844C61.0079 46.5114 61.2437 43.5273 62.7742 41.9828C62.341 43.3559 62.2423 44.8355 62.4885 46.2666C62.7205 47.1799 63.0722 48.0487 63.5318 48.8441C64.1216 49.865 64.9441 50.687 65.9124 51.2236C66.2901 51.4866 66.6912 51.7039 67.1092 51.8719C68.1026 52.2027 70.2001 53.074 73.581 50.4718" fill="#21609B"/>
</g>
<path id="Vector_19" d="M436.42 0.644104H296.842V158.501H436.42V0.644104Z" fill="url(#paint2_linear_2_2)"/>
<path id="Vector_20" d="M432.454 5.12866H300.808V154.017H432.454V5.12866Z" fill="white"/>
<path id="Vector_21" d="M426.11 12.304H307.152V146.841H426.11V12.304Z" fill="#23D997"/>
<g id="Angular-Icon">
<path id="Vector_22" d="M323.733 51.1424L366.696 33.83L410.817 50.8346L403.673 115.121L366.696 138.282L330.298 115.429L323.733 51.1424Z" fill="#E23237"/>
<path id="Vector_23" d="M410.817 50.8346L366.696 33.83V138.282L403.673 115.16L410.817 50.8346V50.8346Z" fill="#B52E31"/>
<path id="Vector_24" d="M366.764 46.0258L339.993 113.39L349.994 113.198L355.369 98.0014H379.385L385.27 113.39L394.828 113.583L366.764 46.0258V46.0258ZM366.833 67.6087L375.881 88.9989H358.872L366.833 67.6087V67.6087Z" fill="white"/>
</g>
<path id="Vector_25" d="M508.587 188.1H323.806V345.957H508.587V188.1Z" fill="url(#paint3_linear_2_2)"/>
<path id="Vector_26" d="M504.622 192.584H327.771V341.472H504.622V192.584Z" fill="white"/>
<path id="Vector_27" d="M498.278 199.76H334.116V334.297H498.278V199.76Z" fill="#23D997"/>
<g id="React-Icon">
<path id="Vector_28" d="M366.702 266.726C366.678 275.238 374.005 283.209 385.577 287.729C383.227 300.893 385.096 311.516 391.427 315.676C397.934 319.951 407.655 317.043 416.898 307.962C425.86 316.74 434.931 320.214 441.28 316.088C447.805 311.847 449.817 300.517 447.478 286.925C459.557 282.457 466.326 275.706 466.35 267.083C466.373 258.769 459.031 251.55 447.615 247.06C450.214 232.924 448.074 222.557 441.481 218.226C435.124 214.05 425.927 217.637 416.785 226.579C407.325 217.02 398.237 214.079 391.627 218.375C385.254 222.518 383.408 233.321 385.692 246.745C374.485 251.119 366.725 258.446 366.702 266.726Z" fill="white"/>
<path id="Vector_29" d="M445.182 251.47C444.241 251.101 443.292 250.759 442.336 250.445C442.496 249.716 442.645 248.984 442.782 248.249C444.972 236.417 443.588 226.875 438.782 223.718C434.174 220.69 426.615 223.803 418.969 231.281C418.215 232.019 417.479 232.779 416.759 233.56C416.28 233.037 415.793 232.525 415.297 232.023C407.328 223.969 399.327 220.559 394.508 223.69C389.887 226.694 388.496 235.655 390.406 246.882C390.596 247.994 390.811 249.099 391.051 250.199C389.917 250.559 388.821 250.943 387.772 251.353C378.393 255.013 372.393 260.782 372.376 266.787C372.359 272.99 378.765 279.235 388.513 283.042C389.304 283.349 390.101 283.634 390.904 283.897C390.64 285.079 390.405 286.269 390.199 287.467C388.317 298.486 389.738 307.245 394.33 310.262C399.072 313.378 407.055 310.221 414.842 302.573C415.457 301.968 416.074 301.329 416.694 300.654C417.468 301.505 418.263 302.331 419.079 303.131C426.58 310.478 434 313.46 438.604 310.468C443.36 307.377 444.928 297.978 442.957 286.529C442.807 285.655 442.632 284.763 442.434 283.852C442.995 283.667 443.544 283.475 444.081 283.277C454.237 279.512 460.855 273.39 460.873 267.104C460.889 261.077 454.729 255.225 445.182 251.47H445.182Z" fill="#53C1DE"/>
<g id="Group 1">
<path id="Vector_30" d="M442.904 279.214C442.419 279.394 441.922 279.567 441.416 279.735C440.19 275.394 438.705 271.152 436.97 267.04C438.662 262.994 440.112 258.825 441.312 254.56C442.216 254.86 443.094 255.176 443.94 255.509C452.121 258.726 457.102 263.458 457.092 267.09C457.082 270.959 451.672 275.963 442.904 279.214H442.904ZM439.246 287.347C440.118 292.409 440.231 296.984 439.635 300.558C439.099 303.769 438.033 305.907 436.72 306.761C433.926 308.576 427.968 306.182 421.554 299.899C420.818 299.179 420.079 298.412 419.335 297.597C422.026 294.248 424.514 290.698 426.783 286.97C430.817 286.6 434.823 285.916 438.774 284.924C438.952 285.748 439.109 286.556 439.246 287.347V287.347ZM402.436 306.323C399.709 307.401 397.538 307.425 396.229 306.565C393.443 304.734 392.302 297.7 393.911 288.278C394.102 287.164 394.321 286.058 394.567 284.957C398.496 285.926 402.478 286.593 406.487 286.952C408.801 290.683 411.328 294.238 414.054 297.594C413.503 298.193 412.939 298.776 412.363 299.344C408.92 302.727 405.472 305.122 402.437 306.323H402.436ZM389.747 279.001C385.437 277.317 381.879 275.137 379.443 272.762C377.254 270.628 376.152 268.514 376.157 266.801C376.167 263.157 380.984 258.525 389.006 255.394C390.013 255.003 391.029 254.646 392.055 254.321C393.232 258.642 394.662 262.87 396.333 266.977C394.617 271.131 393.147 275.409 391.93 279.782C391.197 279.542 390.469 279.281 389.747 279.001ZM394.119 246.074C392.482 236.455 393.607 229.207 396.392 227.398C399.358 225.47 405.897 228.257 412.777 235.211C413.217 235.655 413.659 236.121 414.101 236.602C411.376 239.917 408.848 243.433 406.533 247.126C402.56 247.515 398.614 248.194 394.718 249.16C394.496 248.137 394.296 247.108 394.119 246.074V246.074ZM432.262 256.871C431.402 255.178 430.509 253.506 429.585 251.856C432.408 252.269 435.111 252.815 437.65 253.48C436.826 256.402 435.873 259.275 434.793 262.088C433.98 260.33 433.137 258.591 432.262 256.871ZM416.743 239.667C418.577 241.943 420.309 244.322 421.931 246.796C418.447 246.597 414.96 246.584 411.471 246.756C413.198 244.198 414.966 241.822 416.743 239.667ZM401.028 256.788C400.155 258.488 399.318 260.211 398.516 261.955C397.423 258.998 396.489 256.091 395.728 253.285C398.255 252.655 400.949 252.142 403.755 251.756C402.811 253.409 401.902 255.086 401.028 256.788ZM403.75 282.349C401.012 282.003 398.291 281.498 395.599 280.837C396.388 277.986 397.359 275.024 398.492 272.011C399.287 273.762 400.119 275.492 400.986 277.199C401.871 278.94 402.793 280.657 403.75 282.349V282.349ZM416.694 294.527C414.909 292.334 413.128 289.909 411.39 287.301C413.084 287.383 414.81 287.427 416.567 287.433C418.371 287.44 420.152 287.401 421.91 287.318C420.281 289.82 418.541 292.226 416.694 294.527V294.527ZM434.802 271.987C435.918 274.866 436.902 277.808 437.749 280.802C435.022 281.485 432.265 282.006 429.489 282.364C430.429 280.69 431.34 278.996 432.22 277.281C433.115 275.538 433.976 273.774 434.802 271.987V271.987ZM428.951 275.133C427.603 277.762 426.181 280.34 424.684 282.865C422.058 283.068 419.344 283.168 416.579 283.158C413.825 283.148 411.147 283.041 408.568 282.843C407.047 280.314 405.613 277.722 404.264 275.069C402.923 272.431 401.672 269.738 400.511 266.991C401.684 264.253 402.946 261.568 404.298 258.936V258.936C405.649 256.305 407.086 253.735 408.61 251.226C411.243 251.01 413.942 250.902 416.67 250.912C419.41 250.922 422.111 251.05 424.742 251.286C426.236 253.801 427.65 256.372 428.984 259.001C430.325 261.635 431.589 264.317 432.777 267.045C431.587 269.792 430.312 272.488 428.952 275.133H428.951ZM436.884 227.415C439.841 229.359 440.972 237.157 439.082 247.373C438.958 248.038 438.823 248.701 438.678 249.361C434.783 248.348 430.832 247.627 426.852 247.204C424.581 243.49 422.092 239.954 419.401 236.619C420.065 235.899 420.746 235.197 421.442 234.515C427.993 228.108 434.106 225.59 436.884 227.415V227.415Z" fill="white"/>
</g>
<path id="Vector_31" d="M416.649 258.008C418.212 258.014 419.739 258.543 421.036 259.53C422.333 260.517 423.342 261.916 423.935 263.552C424.529 265.187 424.68 266.984 424.371 268.717C424.061 270.45 423.304 272.04 422.195 273.286C421.086 274.532 419.676 275.378 418.142 275.717C416.608 276.057 415.019 275.874 413.577 275.192C412.135 274.511 410.904 273.361 410.04 271.888C409.176 270.415 408.717 268.685 408.722 266.917C408.725 265.744 408.933 264.582 409.333 263.499C409.733 262.416 410.318 261.433 411.054 260.606C411.79 259.779 412.663 259.124 413.623 258.678C414.583 258.232 415.612 258.005 416.649 258.008" fill="#53C1DE"/>
</g>
<g id="Group_2" opacity="0.7">
<g id="Group_3" opacity="0.1">
<path id="Vector_32" d="M391.801 415.655V429.298V433.847V494.484V499.032V511.917H375.715H370.354V499.032V494.484V433.847V429.298V415.655H375.715H391.801Z" fill="url(#paint4_linear_2_2)"/>
</g>
<g id="Group_4" opacity="0.1">
<path id="Vector_33" d="M369.014 415.655V429.298V433.847V494.484V499.032V511.917H352.929H347.567V499.032V494.484V433.847V429.298V415.655H352.929H369.014Z" fill="url(#paint5_linear_2_2)"/>
</g>
</g>
<path id="Vector_34" d="M83.7117 485.887H45.9602C40.8243 485.887 36.6608 490.595 36.6608 496.404V502.489C36.6608 508.297 40.8243 513.006 45.9602 513.006H83.7117C88.8477 513.006 93.0112 508.297 93.0112 502.489V496.404C93.0112 490.595 88.8477 485.887 83.7117 485.887Z" fill="#23D997"/>
<g id="Group_5" opacity="0.7">
<g id="Group_6" opacity="0.1">
<path id="Vector_35" d="M142.335 416.391V430.034V434.582V495.219V499.768V512.653H158.42H163.782V499.768V495.219V434.582V430.034V416.391H158.42H142.335Z" fill="url(#paint6_linear_2_2)"/>
</g>
<g id="Group_7" opacity="0.1">
<path id="Vector_36" d="M165.123 416.391V430.034V434.582V495.219V499.768V512.653H181.207H186.569V499.768V495.219V434.582V430.034V416.391H181.207H165.123Z" fill="url(#paint7_linear_2_2)"/>
</g>
<g id="Group_8" opacity="0.1">
<path id="Vector_37" d="M229.343 506.386L211.554 430.952L210.517 426.558L207.408 413.375L186.686 419.626L189.795 432.809L190.621 436.308L204.649 495.792L205.685 500.186L208.621 512.636L229.343 506.386Z" fill="url(#paint8_linear_2_2)"/>
</g>
</g>
<path id="Vector_38" d="M164.895 418.743H144.531V510.148H164.895V418.743Z" fill="#535461"/>
<path id="Vector_39" d="M164.895 431.698H144.531V436.017H164.895V431.698Z" fill="#23D997"/>
<path id="Vector_40" d="M164.895 493.595H144.531V497.913H164.895V493.595Z" fill="#23D997"/>
<path id="Vector_41" opacity="0.1" d="M164.895 418.743H159.804V510.148H164.895V418.743Z" fill="black"/>
<path id="Vector_42" d="M186.532 418.743H166.168V510.148H186.532V418.743Z" fill="#535461"/>
<path id="Vector_43" d="M186.532 431.698H166.168V436.017H186.532V431.698Z" fill="#23D997"/>
<path id="Vector_44" d="M186.532 493.595H166.168V497.913H186.532V493.595Z" fill="#23D997"/>
<path id="Vector_45" opacity="0.1" d="M186.532 418.743H181.441V510.148H186.532V418.743Z" fill="black"/>
<g id="Book">
<path id="Vector_46" d="M206.32 415.88L186.644 421.815L207.472 510.133L227.148 504.197L206.32 415.88Z" fill="#535461"/>
<path id="Vector_47" d="M209.272 428.397L189.596 434.333L190.58 438.505L210.256 432.57L209.272 428.397Z" fill="#23D997"/>
<path id="Vector_48" d="M223.376 488.203L203.7 494.138L204.684 498.311L224.36 492.375L223.376 488.203Z" fill="#23D997"/>
<path id="Vector_49" opacity="0.1" d="M206.32 415.88L201.401 417.364L222.229 505.681L227.148 504.197L206.32 415.88Z" fill="black"/>
</g>
<path id="Vector_50" d="M368.706 510.148H389.07V418.743H368.706V510.148Z" fill="#535461"/>
<path id="Vector_51" d="M368.706 436.017H389.07V431.698H368.706V436.017Z" fill="#23D997"/>
<path id="Vector_52" d="M368.706 497.913H389.07V493.595H368.706V497.913Z" fill="#23D997"/>
<path id="Vector_53" opacity="0.1" d="M368.706 510.148H373.797V418.743H368.706V510.148Z" fill="black"/>
<path id="Vector_54" d="M347.069 510.148H367.433V418.743H347.069V510.148Z" fill="#535461"/>
<path id="Vector_55" d="M347.069 436.017H367.433V431.698H347.069V436.017Z" fill="#23D997"/>
<path id="Vector_56" d="M347.069 497.913H367.433V493.595H347.069V497.913Z" fill="#23D997"/>
<path id="Vector_57" opacity="0.1" d="M347.069 510.148H352.16V418.743H347.069V510.148Z" fill="black"/>
<path id="Vector_58" d="M417.733 466.5H491.564C491.564 466.5 506.13 487.518 483.528 518.76H425.266C425.266 518.76 404.172 497.174 417.733 466.5Z" fill="#23D997"/>
<g id="Group_9" opacity="0.1">
<path id="Vector_59" d="M491.564 466.5H417.733C417.564 466.881 417.406 467.259 417.248 467.637H489.053C489.053 467.637 503.261 488.146 481.822 518.76H483.528C506.13 487.518 491.564 466.5 491.564 466.5Z" fill="black"/>
</g>
<path id="Vector_60" d="M512 509.341H0V528.97H512V509.341Z" fill="#E0E0E0"/>
<path id="Vector_61" d="M490.305 528.97H21.6949V537H490.305V528.97Z" fill="#E0E0E0"/>
<path id="Vector_62" opacity="0.1" d="M490.305 528.97H21.6949V531.647H490.305V528.97Z" fill="black"/>
</g>
<defs>
<linearGradient id="paint0_linear_2_2" x1="181.453" y1="345.957" x2="181.453" y2="146.841" gradientUnits="userSpaceOnUse">
<stop stop-color="#808080" stop-opacity="0.25"/>
<stop offset="0.53514" stop-color="#808080" stop-opacity="0.12"/>
<stop offset="1" stop-color="#808080" stop-opacity="0.1"/>
</linearGradient>
<linearGradient id="paint1_linear_2_2" x1="124.75" y1="119.934" x2="124.75" y2="0" gradientUnits="userSpaceOnUse">
<stop stop-color="#808080" stop-opacity="0.25"/>
<stop offset="0.53514" stop-color="#808080" stop-opacity="0.12"/>
<stop offset="1" stop-color="#808080" stop-opacity="0.1"/>
</linearGradient>
<linearGradient id="paint2_linear_2_2" x1="366.631" y1="158.501" x2="366.631" y2="0.644104" gradientUnits="userSpaceOnUse">
<stop stop-color="#808080" stop-opacity="0.25"/>
<stop offset="0.53514" stop-color="#808080" stop-opacity="0.12"/>
<stop offset="1" stop-color="#808080" stop-opacity="0.1"/>
</linearGradient>
<linearGradient id="paint3_linear_2_2" x1="416.197" y1="345.957" x2="416.197" y2="188.1" gradientUnits="userSpaceOnUse">
<stop stop-color="#808080" stop-opacity="0.25"/>
<stop offset="0.53514" stop-color="#808080" stop-opacity="0.12"/>
<stop offset="1" stop-color="#808080" stop-opacity="0.1"/>
</linearGradient>
<linearGradient id="paint4_linear_2_2" x1="381.077" y1="511.917" x2="381.077" y2="415.655" gradientUnits="userSpaceOnUse">
<stop stop-color="#808080" stop-opacity="0.25"/>
<stop offset="0.53514" stop-color="#808080" stop-opacity="0.12"/>
<stop offset="1" stop-color="#808080" stop-opacity="0.1"/>
</linearGradient>
<linearGradient id="paint5_linear_2_2" x1="358.291" y1="511.917" x2="358.291" y2="415.655" gradientUnits="userSpaceOnUse">
<stop stop-color="#808080" stop-opacity="0.25"/>
<stop offset="0.53514" stop-color="#808080" stop-opacity="0.12"/>
<stop offset="1" stop-color="#808080" stop-opacity="0.1"/>
</linearGradient>
<linearGradient id="paint6_linear_2_2" x1="153.059" y1="512.653" x2="153.059" y2="416.391" gradientUnits="userSpaceOnUse">
<stop stop-color="#808080" stop-opacity="0.25"/>
<stop offset="0.53514" stop-color="#808080" stop-opacity="0.12"/>
<stop offset="1" stop-color="#808080" stop-opacity="0.1"/>
</linearGradient>
<linearGradient id="paint7_linear_2_2" x1="175.845" y1="512.653" x2="175.845" y2="416.391" gradientUnits="userSpaceOnUse">
<stop stop-color="#808080" stop-opacity="0.25"/>
<stop offset="0.53514" stop-color="#808080" stop-opacity="0.12"/>
<stop offset="1" stop-color="#808080" stop-opacity="0.1"/>
</linearGradient>
<linearGradient id="paint8_linear_2_2" x1="208.015" y1="512.636" x2="208.015" y2="413.375" gradientUnits="userSpaceOnUse">
<stop stop-color="#808080" stop-opacity="0.25"/>
<stop offset="0.53514" stop-color="#808080" stop-opacity="0.12"/>
<stop offset="1" stop-color="#808080" stop-opacity="0.1"/>
</linearGradient>
<clipPath id="clip0_2_2">
<rect width="512" height="537" fill="white"/>
</clipPath>
</defs>
</svg>
