<svg width="996" height="386" viewBox="0 0 996 386" fill="none" xmlns="http://www.w3.org/2000/svg">
<g clip-path="url(#clip0_7_272)">
<path d="M915.681 218.147C940.342 218.147 960.333 201.147 960.333 180.175C960.333 159.204 940.342 142.204 915.681 142.204C891.02 142.204 871.029 159.204 871.029 180.175C871.029 201.147 891.02 218.147 915.681 218.147Z" fill="#F2F2F2"/>
<path d="M915.681 190.168C922.171 190.168 927.432 185.694 927.432 180.175C927.432 174.657 922.171 170.183 915.681 170.183C909.191 170.183 903.93 174.657 903.93 180.175C903.93 185.694 909.191 190.168 915.681 190.168Z" fill="#E6E6E6"/>
<path d="M913.534 180.389C918.484 183.823 919.992 189.235 919.071 194.461C917.94 200.193 914.443 205.394 909.208 209.131C903.321 213.58 896.142 216.586 889.215 219.664C882.849 222.427 876.732 225.585 870.913 229.112C848.633 242.883 831.801 262.49 822.168 284.371C812.55 306.214 809.97 331.008 817.278 353.646C820.894 364.847 828.208 376.932 841.834 381.147C852.696 384.506 867.526 382.342 873.056 372.823C878.997 362.596 870.709 351.101 860.032 346.025C846.192 339.444 829.66 344.253 817.211 350.914C803.507 358.248 792.49 368.771 778.182 375.344C771.741 378.396 764.574 380.174 757.214 380.546C750.455 380.772 743.709 379.885 737.345 377.935C724.142 373.845 712.776 366.342 704.841 356.48C695.753 345.245 691.685 331.474 690.943 317.983C689.283 287.8 703.304 259.562 714.554 231.571C720.6 216.994 725.13 201.995 728.09 186.744C730.905 171.417 731.907 155.888 731.081 140.391C730.336 126.687 728.747 112.357 721.634 99.8419C715.381 88.8368 703.951 79.8297 689.501 77.5589C682.987 76.4718 676.238 77.1311 670.184 79.4459C668.122 80.2455 669.912 82.8299 671.963 82.0343C684.751 77.0735 699.865 81.9003 709.311 89.9103C720.34 99.2639 724.391 113.077 726.189 125.822C730.231 156.028 727.046 186.616 716.826 215.748C707.018 244.079 691.591 271.228 688.031 300.91C686.406 314.455 687.241 328.457 692.332 341.445C696.699 353.014 704.89 363.27 715.925 370.989C726.315 378.132 739.097 382.998 752.552 383.54C767.657 384.149 780.903 378.423 792.621 370.805C805.172 362.646 816.72 352.58 831.923 348.005C838.855 345.92 846.749 344.947 853.866 346.954C859.971 348.728 865.149 352.269 868.498 356.959C871.589 361.329 872.729 366.794 869.908 371.489C867.256 375.903 862.08 378.457 856.476 379.33C850.543 380.223 844.429 379.34 839.175 376.831C833.036 373.849 828.545 368.846 825.398 363.559C819.123 353.018 817.014 340.469 816.694 328.769C816.414 317.339 818.136 305.939 821.804 294.941C829.102 272.693 843.833 252.724 864.21 237.455C869.344 233.652 874.836 230.213 880.631 227.173C886.953 223.86 893.701 221.212 900.145 218.086C906.487 215.009 912.737 211.334 917.104 206.271C920.826 201.932 922.836 196.702 922.846 191.332C922.913 188.861 922.336 186.409 921.157 184.151C919.978 181.893 918.226 179.884 916.027 178.269C914.283 177.06 911.775 179.168 913.534 180.389V180.389Z" fill="#CCCCCC"/>
<path d="M496.68 355.045C512.293 363.627 530.354 368.442 548.935 368.975C548.603 369.644 548.23 370.297 547.818 370.933C545.655 374.328 542.599 377.252 538.888 379.477C534.493 382.107 529.334 383.66 523.972 383.967C518.611 384.274 513.253 383.323 508.484 381.218C503.715 379.113 499.717 375.934 496.927 372.029C494.136 368.124 492.661 363.642 492.661 359.072V355.045H496.68Z" fill="#3F3D56"/>
<path d="M606.277 356.224V359.072C606.28 364.616 604.11 370.003 600.11 374.382C596.111 378.761 590.51 381.881 584.192 383.251C577.874 384.62 571.2 384.16 565.223 381.944C559.247 379.728 554.31 375.882 551.191 371.013C550.761 370.362 550.372 369.691 550.027 369.005C550.885 369.025 551.731 369.035 552.589 369.035C571.531 369.053 590.111 364.62 606.277 356.224V356.224Z" fill="#3F3D56"/>
<path d="M645.806 55.0688C644.925 54.9589 644.031 54.889 643.139 54.839C653.286 74.727 653.99 97.1831 645.101 117.502C645.994 117.412 646.876 117.292 647.757 117.152C656.362 115.735 664.097 111.766 669.584 105.953C675.07 100.139 677.953 92.8591 677.719 85.4077C677.485 77.9563 674.149 70.8173 668.305 65.2616C662.461 59.7059 654.488 56.094 645.806 55.0688V55.0688Z" fill="#3F3D56"/>
<path d="M462.039 54.839C461.146 54.889 460.253 54.9589 459.372 55.0688C450.689 56.094 442.717 59.7059 436.873 65.2616C431.029 70.8173 427.693 77.9563 427.459 85.4077C427.225 92.8591 430.107 100.139 435.594 105.953C441.081 111.766 448.815 115.735 457.421 117.153C458.302 117.292 459.183 117.412 460.077 117.502C451.188 97.1831 451.891 74.7271 462.039 54.839V54.839Z" fill="#3F3D56"/>
<path d="M645.806 55.0688C636.126 35.4034 618.195 19.5 595.497 10.4484C572.799 1.39674 546.955 -0.156866 522.986 6.08939C499.016 12.3356 478.633 25.9357 465.795 44.2476C452.958 62.5594 448.583 84.2754 453.521 105.177C458.459 126.078 472.357 144.672 492.515 157.347C512.673 170.022 537.651 175.872 562.598 173.761C587.544 171.651 610.677 161.73 627.503 145.926C644.329 130.121 653.646 109.563 653.644 88.2441C653.639 76.8535 650.975 65.5771 645.806 55.0688V55.0688ZM645.101 117.502C636.505 137.151 619.572 153.353 597.634 162.918C575.697 172.483 550.343 174.719 526.564 169.185C502.785 163.652 482.303 150.75 469.149 133.018C455.995 115.287 451.122 94.0109 455.489 73.3776C459.856 52.7443 473.147 34.2484 492.746 21.5301C512.344 8.8119 536.831 2.79263 561.387 4.65701C585.942 6.5214 608.788 16.1344 625.427 31.604C642.066 47.0736 651.294 67.2792 651.293 88.2441C651.29 98.2322 649.193 108.14 645.101 117.502V117.502Z" fill="#3F3D56"/>
<path d="M604.291 68.7586H500.886C495.433 68.7586 490.202 70.601 486.346 73.8804C482.489 77.1599 480.323 81.6077 480.323 86.2456C480.323 90.8834 482.489 95.3313 486.346 98.6107C490.202 101.89 495.433 103.733 500.886 103.733H604.291C609.745 103.733 614.975 101.89 618.832 98.6107C622.688 95.3313 624.855 90.8834 624.855 86.2456C624.855 81.6077 622.688 77.1599 618.832 73.8804C614.975 70.601 609.745 68.7586 604.291 68.7586V68.7586Z" fill="#3F3D56"/>
<path d="M552.589 191.167C524.963 191.178 498.44 200.381 478.691 216.808C458.942 233.235 447.536 255.582 446.913 279.068C446.29 302.554 456.498 325.316 475.356 342.484C494.213 359.651 520.221 369.863 547.818 370.933C548.935 370.983 550.063 371.013 551.191 371.013C551.66 371.033 552.119 371.033 552.589 371.033C580.637 371.033 607.536 361.558 627.369 344.692C647.202 327.827 658.344 304.952 658.344 281.1C658.344 257.248 647.202 234.374 627.369 217.508C607.536 200.642 580.637 191.167 552.589 191.167V191.167ZM606.277 356.224C590.111 364.62 571.531 369.053 552.589 369.035C551.731 369.035 550.885 369.025 550.027 369.005C549.663 369.005 549.299 368.995 548.935 368.975C524.104 368.241 500.412 359.933 482.191 345.569C463.969 331.205 452.435 311.745 449.695 290.745C446.955 269.745 453.193 248.608 467.268 231.197C481.344 213.786 502.317 201.263 526.355 195.918C550.393 190.574 575.89 192.763 598.186 202.087C620.482 211.41 638.088 227.245 647.786 246.698C657.484 266.151 658.627 287.922 651.006 308.032C643.384 328.142 627.507 345.248 606.277 356.224Z" fill="#3F3D56"/>
<path d="M626.813 258.95H580.594C577.374 258.95 574.285 257.862 572.008 255.926C569.731 253.989 568.452 251.363 568.452 248.624C568.452 245.886 569.731 243.259 572.008 241.323C574.285 239.386 577.374 238.299 580.594 238.299H626.813C630.034 238.299 633.122 239.386 635.399 241.323C637.677 243.259 638.956 245.886 638.956 248.624C638.956 251.363 637.677 253.989 635.399 255.926C633.122 257.862 630.034 258.95 626.813 258.95V258.95Z" fill="#3F3D56"/>
<path d="M583.676 253.865C587.079 253.865 589.838 251.519 589.838 248.624C589.838 245.73 587.079 243.384 583.676 243.384C580.272 243.384 577.513 245.73 577.513 248.624C577.513 251.519 580.272 253.865 583.676 253.865Z" fill="#F2F2F2"/>
<path d="M603.704 253.865C607.107 253.865 609.866 251.519 609.866 248.624C609.866 245.73 607.107 243.384 603.704 243.384C600.3 243.384 597.541 245.73 597.541 248.624C597.541 251.519 600.3 253.865 603.704 253.865Z" fill="#F2F2F2"/>
<path d="M623.732 253.865C627.135 253.865 629.894 251.519 629.894 248.624C629.894 245.73 627.135 243.384 623.732 243.384C620.329 243.384 617.569 245.73 617.569 248.624C617.569 251.519 620.329 253.865 623.732 253.865Z" fill="#23D997"/>
<path d="M193.444 381.413C204.011 373.82 210.429 361.825 208.746 350.148C207.063 338.472 196.637 327.737 183.114 325.257C169.591 322.778 154.175 329.642 150.068 340.875C147.807 319.217 145.202 296.651 131.662 278.207C119.401 261.507 98.1646 249.557 75.1496 247.419C52.1345 245.281 27.9026 253.355 13.5489 268.803C-0.804731 284.251 -4.31917 306.709 5.73375 324.444C13.1394 337.509 26.7832 347.232 41.0785 355.142C86.6855 380.379 143.261 388.905 197.093 382.168L193.444 381.413Z" fill="#F2F2F2"/>
<path d="M36.3081 253.803C55.2984 266.957 72.72 281.668 88.3209 297.724C103.924 313.764 117.661 331.053 129.339 349.348C135.867 359.611 141.73 370.17 146.904 380.976C147.959 383.174 143.761 384.131 142.718 381.957C133.554 362.906 122.216 344.663 108.867 327.492C95.5835 310.384 80.3792 294.411 63.4682 279.799C53.9033 271.538 43.8115 263.731 33.2386 256.413C31.0714 254.912 34.1588 252.315 36.3081 253.803V253.803Z" fill="white"/>
<path d="M189.861 65.9508C209.979 65.9508 226.288 52.082 226.288 34.9739C226.288 17.8659 209.979 3.99702 189.861 3.99702C169.743 3.99702 153.435 17.8659 153.435 34.9739C153.435 52.082 169.743 65.9508 189.861 65.9508Z" fill="#2F2E41"/>
<path d="M325.718 148.401C325.02 149.293 324.169 150.092 323.193 150.771C321.788 151.757 320.153 152.478 318.397 152.889C316.641 153.3 314.802 153.39 313.002 153.155C311.202 152.919 309.48 152.363 307.951 151.522C306.421 150.681 305.117 149.575 304.125 148.276C303.896 147.973 303.685 147.66 303.494 147.339L246.093 142.629C241.563 142.243 237.3 140.624 233.937 138.014C230.574 135.404 228.29 131.941 227.425 128.14L224.167 113.534L246.568 110.57L250.588 122.27L306.554 133.961C306.987 133.637 307.447 133.34 307.929 133.071C310.426 131.693 313.405 131.09 316.363 131.364C319.322 131.637 322.079 132.77 324.17 134.571C326.26 136.373 327.556 138.732 327.838 141.252C328.12 143.771 327.371 146.296 325.718 148.401L325.718 148.401Z" fill="#FFB8B8"/>
<path d="M251.964 120.504L226.941 126.253C225.587 126.562 224.144 126.403 222.928 125.809C221.713 125.215 220.824 124.235 220.457 123.084L211.692 95.493C210.753 92.5376 211.134 89.3911 212.762 86.6605C214.389 83.9298 217.148 81.8082 220.506 80.7049C223.864 79.6016 227.584 79.5946 230.948 80.6854C234.311 81.7761 237.081 83.8873 238.723 86.6119L255.292 114.113C255.651 114.709 255.849 115.366 255.871 116.035C255.894 116.705 255.74 117.371 255.421 117.983C255.102 118.596 254.626 119.14 254.028 119.576C253.43 120.012 252.725 120.329 251.964 120.504V120.504Z" fill="#2F2E41"/>
<path d="M237.469 373.854H251.874L258.728 326.601L237.466 326.602L237.469 373.854Z" fill="#FFB8B8"/>
<path d="M279.658 385.228L234.382 385.23L234.382 370.354L262.164 370.353C266.804 370.353 271.253 371.92 274.534 374.71C277.815 377.499 279.658 381.283 279.658 385.228V385.228V385.228Z" fill="#2F2E41"/>
<path d="M109.071 361.915L122.549 366.242L148.59 324.095L128.699 317.709L109.071 361.915Z" fill="#FFB8B8"/>
<path d="M143.815 385.23L101.458 371.63L107.637 357.713L133.629 366.059C137.969 367.452 141.481 370.255 143.391 373.85C145.301 377.446 145.454 381.539 143.815 385.23V385.23L143.815 385.23Z" fill="#2F2E41"/>
<path d="M237.014 362.879C235.897 362.878 234.81 362.576 233.907 362.017C233.005 361.458 232.333 360.67 231.99 359.767L195.248 263.274C195.139 262.988 194.931 262.737 194.652 262.552C194.373 262.368 194.035 262.259 193.682 262.24C193.329 262.221 192.978 262.292 192.674 262.445C192.369 262.598 192.126 262.826 191.975 263.098L141.055 355.23C140.503 356.226 139.542 357.016 138.352 357.449C137.162 357.883 135.826 357.931 134.598 357.584L114.543 351.899C113.269 351.535 112.205 350.774 111.567 349.769C110.928 348.764 110.762 347.59 111.103 346.485L142.294 246.013C145.558 235.37 147.915 224.541 149.348 213.61C151.536 195.61 161.459 178.93 177.217 166.768C184.097 161.408 188.57 154.178 189.867 146.32L189.951 145.818L235.63 151.951L264.564 352.73C264.714 353.804 264.405 354.888 263.694 355.785C262.983 356.682 261.917 357.333 260.69 357.618L238.395 362.722C237.945 362.826 237.48 362.879 237.014 362.879V362.879Z" fill="#2F2E41"/>
<path d="M204.332 65.8033C220.271 65.8033 233.193 54.8151 233.193 41.2606C233.193 27.706 220.271 16.7178 204.332 16.7178C188.393 16.7178 175.471 27.706 175.471 41.2606C175.471 54.8151 188.393 65.8033 204.332 65.8033Z" fill="#FFB8B8"/>
<path d="M232.792 156.232C232.701 156.232 232.611 156.23 232.52 156.226L187.238 154.301C185.974 154.252 184.773 153.818 183.855 153.077C182.938 152.337 182.365 151.34 182.242 150.269L176.056 98.9789C175.603 95.2229 176.237 91.4296 177.903 87.9297C179.568 84.4299 182.215 81.3295 185.613 78.8988C189.011 76.4681 193.056 74.7809 197.396 73.9841C201.736 73.1873 206.239 73.3051 210.513 74.3273H210.513C214.054 75.1521 217.354 76.5957 220.202 78.5659C252.056 100.812 241.785 141.117 237.878 152.941C237.572 153.888 236.908 154.723 235.989 155.318C235.07 155.912 233.947 156.234 232.792 156.232V156.232Z" fill="#23D997"/>
<path d="M193.398 190.672C192.137 190.672 190.883 190.513 189.678 190.198C187.935 189.749 186.323 188.991 184.948 187.975C183.573 186.96 182.466 185.708 181.7 184.303C180.933 182.898 180.524 181.371 180.5 179.822C180.476 178.273 180.837 176.737 181.56 175.315C181.729 174.985 181.918 174.663 182.127 174.349L154.942 131.1C152.811 127.679 152.034 123.764 152.727 119.937C153.419 116.111 155.544 112.576 158.787 109.857L171.282 99.46L186.592 113.679L177.365 123.006L196.92 169.105C197.477 169.233 198.022 169.394 198.553 169.586C201.284 170.591 203.525 172.366 204.896 174.612C206.268 176.858 206.686 179.438 206.08 181.916C205.474 184.393 203.882 186.618 201.571 188.213C199.261 189.808 196.374 190.677 193.398 190.672L193.398 190.672Z" fill="#FFB8B8"/>
<path d="M179.856 123.002L160.366 108.469C159.313 107.682 158.67 106.572 158.579 105.382C158.487 104.193 158.954 103.021 159.877 102.124L182.035 80.6345C184.408 78.3327 187.7 76.8596 191.275 76.4994C194.85 76.1391 198.455 76.9172 201.395 78.6836C204.335 80.4499 206.403 83.0795 207.198 86.0652C207.993 89.051 207.461 92.1814 205.703 94.8529L187.956 121.817C187.572 122.402 187.038 122.906 186.395 123.293C185.752 123.68 185.015 123.939 184.238 124.053C183.462 124.166 182.665 124.131 181.907 123.949C181.149 123.767 180.448 123.444 179.856 123.002V123.002Z" fill="#2F2E41"/>
<path d="M185.76 65.1007C188.393 65.8947 191.622 66.5948 193.694 64.948C195.717 63.3404 195.348 60.4004 194.157 58.2345C192.965 56.0687 191.117 54.1413 190.55 51.7838C189.738 48.4052 191.838 44.8952 194.835 42.6925C197.832 40.4898 201.605 39.3327 205.289 38.2193L225.492 32.1121C230.492 30.6003 235.881 28.8245 238.68 24.8463C242.729 19.09 239.027 10.8617 232.385 7.50273C225.743 4.1438 217.354 4.76955 210.188 7.13139C206.224 8.43768 202.454 10.2377 198.355 11.1573C190.266 12.9721 181.068 11.344 173.959 15.2227C167.771 18.5991 164.901 25.4885 165.109 31.9346C165.318 38.3807 168.109 44.5197 171.053 50.415C172.804 53.9223 174.675 57.47 177.642 60.2596C180.608 63.0492 184.895 65.0006 189.177 64.4873L185.76 65.1007Z" fill="#2F2E41"/>
<path d="M159.31 39.9702C172.289 39.9702 182.811 31.0225 182.811 19.9851C182.811 8.94763 172.289 0 159.31 0C146.331 0 135.809 8.94763 135.809 19.9851C135.809 31.0225 146.331 39.9702 159.31 39.9702Z" fill="#2F2E41"/>
<path d="M349.918 135.349L349.501 135.301L351.071 125.585C351.312 124.094 350.847 122.582 349.777 121.383C348.707 120.183 347.121 119.394 345.368 119.189L321.162 116.359C319.408 116.154 317.63 116.55 316.22 117.46C314.809 118.369 313.881 119.718 313.64 121.21L305.024 174.51C304.783 176.002 305.249 177.513 306.318 178.713C307.388 179.912 308.974 180.702 310.728 180.907L334.934 183.736C336.687 183.941 338.465 183.545 339.876 182.636C341.286 181.726 342.214 180.377 342.455 178.886L348.383 142.216L348.8 142.265L349.918 135.349Z" fill="#3F3D56"/>
<path d="M344.607 122.039L341.593 121.687C341.685 121.992 341.687 122.312 341.6 122.618C341.512 122.924 341.337 123.207 341.091 123.442C340.844 123.677 340.533 123.857 340.186 123.966C339.838 124.075 339.464 124.109 339.097 124.066L325.87 122.52C325.503 122.477 325.154 122.358 324.854 122.174C324.554 121.989 324.312 121.745 324.149 121.462C323.986 121.179 323.908 120.866 323.92 120.551C323.933 120.236 324.037 119.929 324.222 119.656L321.407 119.327C320.789 119.255 320.159 119.287 319.555 119.421C318.951 119.556 318.384 119.79 317.887 120.111C317.389 120.432 316.971 120.833 316.656 121.291C316.341 121.75 316.134 122.256 316.049 122.782L307.843 173.549C307.671 174.611 308.003 175.688 308.765 176.542C309.527 177.397 310.657 177.959 311.906 178.105L335.105 180.817C336.355 180.963 337.621 180.681 338.626 180.033C339.63 179.385 340.291 178.424 340.463 177.362V177.362L348.669 126.595C348.841 125.533 348.51 124.456 347.748 123.602C346.986 122.747 345.856 122.185 344.607 122.039V122.039Z" fill="white"/>
<path d="M328.153 164.187C335.292 164.187 341.079 159.266 341.079 153.196C341.079 147.125 335.292 142.204 328.153 142.204C321.015 142.204 315.228 147.125 315.228 153.196C315.228 159.266 321.015 164.187 328.153 164.187Z" fill="#23D997"/>
<path d="M326.872 157.389C326.581 157.389 326.298 157.309 326.065 157.161L326.051 157.152L323.013 155.174C322.872 155.083 322.753 154.968 322.664 154.838C322.574 154.707 322.516 154.563 322.492 154.413C322.469 154.263 322.48 154.111 322.526 153.965C322.571 153.819 322.651 153.682 322.759 153.562C322.867 153.442 323.002 153.342 323.155 153.266C323.309 153.191 323.479 153.142 323.655 153.122C323.832 153.103 324.011 153.113 324.182 153.152C324.354 153.192 324.514 153.26 324.655 153.352L326.622 154.635L331.272 149.478C331.38 149.359 331.514 149.258 331.668 149.183C331.821 149.108 331.991 149.059 332.166 149.039C332.342 149.019 332.521 149.029 332.692 149.068C332.863 149.107 333.024 149.174 333.164 149.266L333.135 149.299L333.165 149.267C333.449 149.452 333.634 149.725 333.681 150.027C333.728 150.329 333.632 150.634 333.415 150.876L327.946 156.941C327.819 157.081 327.657 157.194 327.47 157.271C327.284 157.349 327.079 157.389 326.872 157.389Z" fill="white"/>
<path d="M994.601 386H8.38403C8.01366 385.999 7.65884 385.873 7.39732 385.65C7.13581 385.427 6.98895 385.125 6.98895 384.81C6.98895 384.495 7.13581 384.193 7.39732 383.97C7.65884 383.747 8.01366 383.621 8.38403 383.62H994.601C994.972 383.62 995.328 383.746 995.59 383.969C995.853 384.192 996 384.495 996 384.81C996 385.126 995.853 385.428 995.59 385.651C995.328 385.875 994.972 386 994.601 386Z" fill="#CCCCCC"/>
</g>
<defs>
<clipPath id="clip0_7_272">
<rect width="996" height="386" fill="white"/>
</clipPath>
</defs>
</svg>
