<svg width="50" height="58" viewBox="0 0 50 58" fill="none" xmlns="http://www.w3.org/2000/svg">
<path d="M23.4606 4.83333C33.5018 4.83333 29.8333 19.3333 29.8333 19.3333C29.8333 19.3333 44.3333 15.3458 44.3333 25.2711V53.1667H5.66665V4.83333H23.4606ZM25.4567 0H0.833313V58H49.1666V23.2338C49.1666 17.4556 33.1006 0 25.4567 0ZM37.0833 31.4167H30.7323V40.3245H32.9242V36.7672H36.5251V34.9982H32.9242V33.3113H37.0833V31.4167ZM25.2416 31.4167H21.3774V40.3245H25.2416C26.5394 40.3245 27.5641 39.8871 28.2915 39.0316C29.6327 37.4414 29.7101 34.1161 28.1416 32.5259C27.4215 31.8009 26.421 31.4167 25.2416 31.4167V31.4167ZM23.5693 33.3089H24.768C25.9111 33.3089 26.7061 33.727 26.9792 34.8653C27.1339 35.5105 27.1653 36.5062 26.9285 37.1563C26.6191 38.0045 26.0077 38.4323 25.1063 38.4323H23.5669V33.3089H23.5693ZM16.9476 31.4167H12.9166V40.3245H15.1086V37.2384H16.9476C18.4436 37.2384 19.519 36.569 19.9056 35.3945C20.1352 34.6913 20.1352 33.9518 19.9056 33.2558C19.519 32.0861 18.4411 31.4167 16.9476 31.4167V31.4167ZM15.1086 33.1857H16.4281C16.996 33.1857 17.5566 33.2533 17.8201 33.7367C17.982 34.0339 17.982 34.6212 17.8201 34.9184C17.5566 35.3993 16.996 35.467 16.4281 35.467H15.1086V33.1857Z" fill="#1B8760"/>
</svg>
