<svg width="41" height="58" viewBox="0 0 41 58" fill="none" xmlns="http://www.w3.org/2000/svg">
<path fill-rule="evenodd" clip-rule="evenodd" d="M58.6667 0H0.666672V58H41.2667L58.6667 43.5V0ZM38.3667 55.5833H3.56667V2.41667H55.7667V41.0833H38.3667V55.5833ZM41.2667 43.5H54.5661L41.2667 54.5828V43.5V43.5ZM32.5667 45.9167H9.36667V48.3333H32.5667V45.9167ZM32.5667 38.6667H9.36667V41.0833H32.5667V38.6667ZM49.9667 33.8333V31.4167H9.36667V33.8333H49.9667ZM49.9667 24.1667H38.3667V26.5833H49.9667V24.1667ZM32.5493 26.5833H9.37537L9.36667 24.6766C9.35797 22.9366 9.34927 20.7737 13.1773 20.0366C17.478 19.2125 16.7617 19.0264 16.5355 18.676C13.4093 13.8717 14.4765 11.0079 15.39 9.72708C16.5152 8.15383 18.5481 7.25 20.9667 7.25C23.365 7.25 25.3834 8.13933 26.5057 9.69325C28.0862 11.8779 27.6918 15.0631 25.4066 18.6663C25.1021 19.14 24.8411 19.2826 28.6517 20.0173C32.5812 20.7713 32.5725 22.9463 32.5667 24.6959L32.5493 26.5833ZM12.2667 24.1667H29.6667C29.6464 22.8448 29.4637 22.6538 28.1007 22.3928C25.6212 21.9143 23.3766 21.4842 22.5878 20.0438C22.176 19.2922 22.2601 18.4488 22.8401 17.5329C24.6091 14.7513 25.0383 12.3468 24.0204 10.9378C23.22 9.831 21.7642 9.66667 20.9667 9.66667C19.5747 9.66667 18.4814 10.1258 17.884 10.9644C16.8632 12.3903 17.3011 14.7828 19.0846 17.5233C19.6762 18.4343 19.769 19.2802 19.3601 20.0342C18.58 21.4793 16.3557 21.9047 14.0038 22.359C12.4813 22.6514 12.2841 22.8472 12.2667 24.1667V24.1667ZM49.9667 19.3333V16.9167H38.3667V19.3333H49.9667ZM49.9667 9.66667H38.3667V12.0833H49.9667V9.66667Z" fill="#23D997"/>
</svg>
